<mxfile host="app.diagrams.net" agent="Mozilla/5.0 (iPhone; CPU iPhone OS 18_4_0 like Mac OS X) AppleWebKit/605.1.15 (KHTML, like Gecko) CriOS/134.0.6998.33 Mobile/15E148 Safari/604.1" version="26.1.0">
  <diagram name="Page-1" id="AzRNq_Jl3adJljbqBCw2">
    <mxGraphModel>
      <root>
        <mxCell id="0" />
        <mxCell id="1" parent="0" />
      </root>
    </mxGraphModel>
  </diagram>
</mxfile>
